<svg width="376" height="129" viewBox="0 0 376 129" fill="none" xmlns="http://www.w3.org/2000/svg">
<path d="M0 93.5999L56.2 37.7L96.1 75.7999L79.7 93.5999H46.3L63.1 76.0999L56.7 69.8999L32.4 93.5999H0Z" fill="#FEFEFE"/>
<path d="M119.9 51.8L76.3001 8H44.1001L103.5 68.4L119.9 51.8Z" fill="#FEFEFE"/>
<path d="M145.4 19.7999C145.4 29.6999 137.4 37.6999 127.5 37.6999C117.6 37.6999 109.6 29.6999 109.6 19.7999C109.6 9.8999 117.6 1.8999 127.5 1.8999C137.3 1.8999 145.4 9.8999 145.4 19.7999Z" fill="#FEFEFE"/>
<path fill-rule="evenodd" clip-rule="evenodd" d="M164.7 7.20001V38.5H174.3C176.3 38.5 178.3 38.2 180.1 37.5C181.8 36.8 183.2 35.9 184.5 34.6C185.8 33.2 186.7 31.6 187.3 29.8C188.1 27.6 188.3 25.3 188.3 23C188.3 20.7 188 18.4 187.3 16.2C186.7 14.4 185.8 12.8 184.5 11.4C183.3 10.1 181.8 9.1 180.1 8.5C178.2 7.8 176.3 7.5 174.3 7.5H164.7V7.20001ZM195.7 22.8C195.7 25.9 195.3 29 194.2 32C193.2 34.6 191.8 37.1 189.8 39.1C187.9 41.1 185.6 42.6 183 43.6C180.3 44.7 177.3 45.1 174.4 45.1H157.5V0.5H174.4C177.3 0.5 180.3 1 183 2C185.6 3 187.9 4.5 189.8 6.5C191.8 8.5 193.2 10.9 194.2 13.6C195.3 16.6 195.7 19.7 195.7 22.8Z" fill="#FEFEFE"/>
<path fill-rule="evenodd" clip-rule="evenodd" d="M214 11.7L207 29.1L206.1 31.3L201.4 43C201.2 43.6 200.8 44.1 200.3 44.4C199.7 44.9 199 45.1 198.3 45.1H192.9L211.1 0.5H216.9L235.1 45.1H229.6C228.9 45.1 228.1 44.9 227.6 44.4C227.2 44 226.8 43.6 226.6 43L221 29.1L214 11.7Z" fill="#FEFEFE"/>
<path fill-rule="evenodd" clip-rule="evenodd" d="M293 22.8C293 20.5 292.7 18.1 292 15.9C291.4 14.1 290.4 12.4 289.1 11C287.9 9.69997 286.4 8.69997 284.7 7.99997C282.9 7.19997 280.9 6.89996 278.9 6.89996C276.9 6.89996 275 7.19997 273.1 7.99997C271.4 8.69997 270 9.69997 268.7 11C267.4 12.4 266.5 14.1 265.8 16C265 18.2 264.7 20.5 264.7 22.9C264.7 25.2 265 27.6 265.8 29.8C266.4 31.6 267.4 33.3 268.7 34.7C269.9 36 271.4 37 273.1 37.7C274.9 38.5 276.9 38.8 278.9 38.8C280.9 38.8 282.8 38.5 284.7 37.7C286.4 37 287.8 36 289.1 34.7C290.4 33.3 291.3 31.6 292 29.8C292.8 27.5 293 25.1 293 22.8ZM300.4 22.8C300.4 25.9 300 29.1 298.9 32C297.9 34.7 296.5 37.1 294.5 39.2C292.6 41.2 290.3 42.8 287.7 43.9C285 45 282 45.5 279.1 45.5C276.1 45.5 273.2 45 270.5 43.9C267.9 42.8 265.6 41.3 263.7 39.2C261.7 37.1 260.3 34.7 259.3 32C258.2 29 257.8 25.9 257.8 22.8C257.8 19.7 258.2 16.6 259.3 13.6C260.3 10.9 261.7 8.49996 263.7 6.39996C265.6 4.39996 267.9 2.79998 270.5 1.69998C273.2 0.499982 276.2 0.0999756 279.1 0.0999756C282.1 0.0999756 285 0.599982 287.7 1.69998C290.3 2.79998 292.6 4.29996 294.5 6.39996C296.5 8.49996 297.9 10.9 298.9 13.6C299.9 16.6 300.4 19.7 300.4 22.8Z" fill="#FEFEFE"/>
<path fill-rule="evenodd" clip-rule="evenodd" d="M312 13.7999V44.8999H305.1V0.299927H308.7C309.2 0.299927 309.7 0.399945 310.2 0.599945C310.7 0.799945 311.1 1.19995 311.5 1.69995L333.7 31.2999V0.299927H340.5V44.8999H337C336.4 44.8999 335.9 44.7999 335.4 44.4999C334.9 44.1999 334.5 43.8999 334.2 43.3999L312 13.7999Z" fill="#FEFEFE"/>
<path d="M365.6 0.299927H346.2C346.2 2.59993 346.2 4.79994 346.2 7.09995H365.6V0.299927Z" fill="#FEFEFE"/>
<path d="M362 19.3999H346.1C346.1 21.6999 346.1 23.9999 346.1 26.1999H362V19.3999Z" fill="#FEFEFE"/>
<path d="M346.1 38.1C346.1 40.4 346.1 42.6 346.1 44.9H365.6L365.7 38.1H346.1Z" fill="#FEFEFE"/>
<path d="M365.5 51.5H157.2V96.8H365.5V51.5Z" fill="#FEFEFE"/>
<path d="M373.6 117C374.4 117 375 117.2 375.4 117.6C375.8 118 376 118.6 376 119.3V125H373.7V120C373.7 119.7 373.7 119.4 373.6 119.3C373.5 119.1 373.4 119 373.3 118.9C373.1 118.8 372.9 118.8 372.7 118.8C372.2 118.8 371.7 119 371.1 119.4V125.1H368.8V117.4L371.1 117.2V118C371.5 117.7 372 117.5 372.4 117.4C372.7 117.1 373.1 117 373.6 117ZM361.9 122.8C361.9 123.1 362 123.2 362.1 123.4C362.3 123.5 362.5 123.6 362.8 123.6C363.3 123.6 363.8 123.4 364.4 123.1V121.6C363.6 121.6 362.9 121.8 362.5 122C362.1 122.2 361.9 122.5 361.9 122.8ZM363.6 117C364.6 117 365.4 117.2 365.9 117.6C366.4 118 366.7 118.6 366.7 119.6V125.1H364.7L364.5 124.5C364.1 124.8 363.7 125 363.2 125.2C362.8 125.3 362.3 125.4 361.9 125.4C361.4 125.4 361 125.3 360.6 125.1C360.2 124.9 359.9 124.7 359.7 124.3C359.5 124 359.4 123.6 359.4 123.2C359.4 122.3 359.8 121.6 360.7 121.1C361.6 120.6 362.8 120.4 364.2 120.3V120C364.2 119.7 364.2 119.4 364.1 119.2C364 119 363.9 118.9 363.8 118.8C363.6 118.7 363.4 118.7 363.1 118.7C362.4 118.7 361.5 119 360.6 119.6L359.7 118.2C360.3 117.8 360.9 117.5 361.5 117.3C362.3 117.1 362.9 117 363.6 117ZM359.3 117.3V117.4L357.1 125H354.9L353.8 121.2C353.6 120.6 353.5 120.1 353.5 119.8C353.5 120.2 353.4 120.7 353.2 121.2L352.2 125H350L347.7 117.3V117.2H350.2L351 120.8C351.1 121.3 351.2 121.8 351.2 122.2C351.3 121.7 351.4 121.2 351.5 120.8L352.4 117.2H354.6L355.6 120.7C355.7 121.2 355.8 121.7 355.9 122.2C355.9 121.7 356 121.2 356.1 120.7L356.8 117.2H359.3V117.3ZM342 122.8C342 123.1 342.1 123.2 342.2 123.4C342.4 123.5 342.6 123.6 342.9 123.6C343.4 123.6 343.9 123.4 344.5 123.1V121.6C343.7 121.6 343 121.8 342.6 122C342.2 122.2 342 122.5 342 122.8ZM343.7 117C344.7 117 345.5 117.2 346 117.6C346.5 118 346.8 118.6 346.8 119.6V125.1H344.8L344.6 124.5C344.2 124.8 343.8 125 343.3 125.2C342.9 125.3 342.4 125.4 342 125.4C341.5 125.4 341.1 125.3 340.7 125.1C340.3 124.9 340 124.7 339.8 124.3C339.6 124 339.5 123.6 339.5 123.2C339.5 122.3 339.9 121.6 340.8 121.1C341.7 120.6 342.9 120.4 344.3 120.3V120C344.3 119.7 344.3 119.4 344.2 119.2C344.1 119 344 118.9 343.9 118.8C343.7 118.7 343.5 118.7 343.2 118.7C342.5 118.7 341.6 119 340.7 119.6L339.8 118.2C340.4 117.8 341 117.5 341.6 117.3C342.4 117.1 343 117 343.7 117ZM335.9 117C336.7 117 337.3 117.2 337.7 117.6C338.1 118 338.3 118.6 338.3 119.3V125H336V120C336 119.7 336 119.4 335.9 119.3C335.8 119.1 335.7 119 335.6 118.9C335.4 118.8 335.2 118.8 335 118.8C334.5 118.8 334 119 333.4 119.3V125H331.1V113.2L333.4 113V117.8C334.1 117.2 334.9 117 335.9 117ZM322.6 122.9C323.6 122.9 324.4 122.8 325 122.6C325.6 122.4 326 122.1 326.3 121.6C326.6 121.1 326.8 120.4 326.8 119.4C326.8 118.5 326.7 117.9 326.4 117.4C326.1 116.9 325.7 116.5 325.2 116.3C324.7 116.1 324 116 323.2 116H321.9V123H322.6V122.9ZM323.1 113.9C325 113.9 326.5 114.3 327.6 115.2C328.7 116 329.2 117.5 329.2 119.5C329.2 120.7 328.9 121.8 328.4 122.6C327.8 123.4 327.1 124.1 326.2 124.5C325.3 124.9 324.2 125.1 323.1 125.1H319.5V114H323.1V113.9ZM313.2 117C313.5 117 313.8 117.1 314.1 117.2L313.8 119.6C313.6 119.5 313.5 119.5 313.3 119.4C313.2 119.4 313 119.3 312.8 119.3C312.5 119.3 312.2 119.4 311.9 119.5C311.6 119.6 311.3 119.9 311.1 120.3V125H308.8V117.3L311.1 117.1V118.2C311.6 117.4 312.4 117 313.2 117ZM302 122.8C302 123.1 302.1 123.2 302.2 123.4C302.4 123.5 302.6 123.6 302.9 123.6C303.4 123.6 303.9 123.4 304.5 123.1V121.6C303.7 121.6 303 121.8 302.6 122C302.2 122.2 302 122.5 302 122.8ZM303.7 117C304.7 117 305.5 117.2 306 117.6C306.5 118 306.8 118.6 306.8 119.6V125.1H304.8L304.6 124.5C304.2 124.8 303.8 125 303.3 125.2C302.9 125.3 302.4 125.4 302 125.4C301.5 125.4 301.1 125.3 300.7 125.1C300.3 124.9 300 124.7 299.8 124.3C299.6 124 299.5 123.6 299.5 123.2C299.5 122.3 300 121.6 300.8 121.1C301.7 120.6 302.9 120.4 304.3 120.3V120C304.3 119.7 304.3 119.4 304.2 119.2C304.1 119 304 118.9 303.9 118.8C303.7 118.7 303.5 118.7 303.2 118.7C302.5 118.7 301.6 119 300.7 119.6L299.8 118.2C300.4 117.8 301 117.5 301.6 117.3C302.4 117.1 303 117 303.7 117ZM295.9 117C296.7 117 297.3 117.2 297.7 117.6C298.1 118 298.3 118.6 298.3 119.3V125H296V120C296 119.7 296 119.4 295.9 119.3C295.8 119.1 295.7 119 295.6 118.9C295.4 118.8 295.2 118.8 295 118.8C294.5 118.8 294 119 293.4 119.3V125H291.1V113.2L293.4 113V117.8C294.1 117.2 294.9 117 295.9 117ZM286.8 120.8L289.8 124.9V125H287.1L284.4 121.1V125H282V113.2L284.3 113V120.8L287.1 117.3H289.6V117.4L286.8 120.8ZM277.7 125V117.3L280 117.1V125H277.7ZM278.8 116.1C278.5 116.1 278.3 116 278.1 115.9C277.9 115.8 277.7 115.6 277.5 115.4C277.4 115.2 277.3 114.9 277.3 114.7C277.3 114.4 277.4 114.2 277.5 114C277.6 113.8 277.8 113.6 278.1 113.5C278.3 113.4 278.6 113.3 278.8 113.3C279.1 113.3 279.3 113.4 279.6 113.5C279.8 113.6 280 113.8 280.2 114C280.3 114.2 280.4 114.5 280.4 114.7C280.4 115 280.3 115.2 280.2 115.4C280.1 115.6 279.9 115.8 279.6 115.9C279.3 116 279.1 116.1 278.8 116.1ZM273.3 117C274.1 117 274.7 117.2 275.1 117.6C275.5 118 275.7 118.6 275.7 119.3V125H273.4V120C273.4 119.7 273.4 119.4 273.3 119.3C273.2 119.1 273.1 119 273 118.9C272.8 118.8 272.6 118.8 272.4 118.8C271.9 118.8 271.4 119 270.8 119.3V125H268.5V113.2L270.8 113V117.8C271.5 117.2 272.3 117 273.3 117ZM262.3 125.2C260.6 125.2 259.1 124.8 257.9 123.9L259 122.2C260.1 122.9 261.1 123.2 262.1 123.2C262.8 123.2 263.3 123.1 263.6 122.9C264 122.7 264.2 122.4 264.2 122C264.2 121.7 264.1 121.5 264 121.4C263.9 121.2 263.7 121.1 263.4 120.9C263.1 120.7 262.6 120.5 262 120.3L261.6 120.1C260.9 119.8 260.3 119.5 259.8 119.3C259.4 119 259 118.7 258.7 118.3C258.4 117.9 258.3 117.4 258.3 116.7C258.3 116 258.5 115.4 258.9 115C259.3 114.5 259.8 114.2 260.4 114C261 113.8 261.7 113.7 262.4 113.7C263 113.7 263.7 113.8 264.4 114C265.1 114.2 265.7 114.5 266.4 114.9L265.3 116.6C264.8 116.3 264.3 116 263.8 115.9C263.4 115.8 262.9 115.7 262.4 115.7C261.9 115.7 261.4 115.8 261.2 116C260.9 116.2 260.8 116.4 260.8 116.7C260.8 116.9 260.9 117.1 261 117.2C261.1 117.4 261.3 117.5 261.6 117.7C261.9 117.9 262.3 118 262.9 118.2L263.3 118.3C264 118.6 264.6 118.8 265.1 119.1C265.6 119.3 265.9 119.7 266.2 120.1C266.5 120.5 266.7 121.1 266.7 121.8C266.7 122.5 266.5 123.2 266.1 123.7C265.7 124.2 265.2 124.6 264.5 124.8C263.9 125.1 263.1 125.2 262.3 125.2ZM253.5 117.4V117.5L250.9 125.2C250.6 126 250.3 126.6 250 127.1C249.7 127.6 249.3 127.9 248.9 128.1C248.5 128.3 248 128.4 247.4 128.4C246.9 128.4 246.4 128.3 245.8 128.1L246.3 126.7C246.6 126.8 246.9 126.9 247.3 126.9C247.6 126.9 247.8 126.9 248 126.8C248.2 126.7 248.4 126.6 248.6 126.3C248.8 126.1 249 125.7 249.2 125.2L249.3 125H248.8L245.9 117.5V117.4H247.9L249.5 121.9C249.7 122.4 249.8 122.9 249.9 123.3C250.1 122.6 250.2 122.2 250.3 121.9L251.7 117.4H253.5ZM240.8 123.8C241.6 123.8 242.2 123.6 242.7 123.1C243.2 122.7 243.4 121.9 243.4 121C243.4 120.2 243.3 119.6 243 119.2C242.7 118.8 242.3 118.6 241.7 118.6C241.2 118.6 240.5 118.8 239.8 119.1V123.6C240.1 123.7 240.4 123.8 240.8 123.8ZM242.2 117.1C243.2 117.1 244 117.4 244.5 118.1C245 118.8 245.3 119.7 245.3 120.9C245.3 121.9 245.1 122.7 244.7 123.4C244.3 124 243.7 124.5 243.1 124.8C242.4 125.1 241.7 125.2 241 125.2C240.6 125.2 240.2 125.2 239.7 125.1C239.2 125 238.7 124.9 238.1 124.7V113.1L240 112.9V117.8C240.6 117.4 241.4 117.1 242.2 117.1ZM228.9 118.5C228.4 118.5 228 118.7 227.7 119C227.4 119.3 227.2 119.8 227.1 120.3H230.3V120.2C230.3 119.6 230.2 119.2 229.9 118.9C229.7 118.6 229.3 118.5 228.9 118.5ZM232.2 120.4C232.2 120.8 232.2 121.1 232.1 121.6H227C227 122.4 227.3 122.9 227.6 123.3C228 123.7 228.5 123.8 229 123.8C229.4 123.8 229.8 123.7 230.1 123.6C230.4 123.5 230.8 123.3 231.2 123.1L231.9 124.3C231.5 124.6 231 124.8 230.5 125C230 125.2 229.4 125.3 228.8 125.3C228.1 125.3 227.4 125.2 226.8 124.9C226.2 124.6 225.8 124.2 225.4 123.6C225.1 123 224.9 122.3 224.9 121.3C224.9 120.5 225 119.8 225.3 119.2C225.6 118.6 226 118.1 226.6 117.7C227.2 117.3 227.8 117.2 228.6 117.2C229.3 117.2 229.9 117.3 230.4 117.6C230.9 117.9 231.3 118.3 231.5 118.8C232.1 119.2 232.2 119.8 232.2 120.4ZM224.7 117.4V117.5L221.7 125H220L217 117.5V117.4H219L220.6 121.9C220.8 122.3 220.9 122.8 221 123.1C221 123 221.1 122.8 221.1 122.6C221.2 122.4 221.2 122.1 221.3 121.8L222.7 117.3H224.7V117.4ZM213.9 125V117.4L215.8 117.2V125H213.9ZM214.8 116C214.6 116 214.4 115.9 214.2 115.8C214 115.7 213.9 115.5 213.7 115.4C213.6 115.2 213.5 115 213.5 114.8C213.5 114.6 213.6 114.4 213.7 114.2C213.8 114 214 113.9 214.2 113.7C214.4 113.6 214.6 113.5 214.8 113.5C215 113.5 215.2 113.6 215.4 113.7C215.6 113.8 215.7 114 215.9 114.2C216 114.4 216.1 114.6 216.1 114.8C216.1 115 216 115.2 215.9 115.4C215.8 115.6 215.6 115.7 215.4 115.8C215.2 115.9 215 116 214.8 116ZM212.6 124.7C211.9 125 211.2 125.2 210.5 125.2C210.1 125.2 209.7 125.1 209.3 124.9C208.9 124.7 208.7 124.5 208.5 124.1C208.3 123.7 208.2 123.3 208.2 122.7V118.8H206.7V117.3H208.2V115.6L210.1 115.3V117.3H212.5L212.3 118.8H210V122.4C210 122.8 210.1 123.1 210.2 123.3C210.4 123.5 210.6 123.6 210.9 123.6C211.1 123.6 211.2 123.6 211.4 123.5C211.6 123.5 211.8 123.4 212 123.3L212.6 124.7ZM200.8 122.9C200.8 123.2 200.9 123.4 201.1 123.5C201.3 123.6 201.5 123.7 201.8 123.7C202.4 123.7 203.1 123.5 203.8 123.1V121.4C202.9 121.4 202.2 121.6 201.6 121.8C201.1 122.2 200.8 122.5 200.8 122.9ZM202.8 117.1C203.7 117.1 204.4 117.3 204.9 117.7C205.4 118.1 205.6 118.7 205.6 119.6V124.9H204L203.9 124.3C203.5 124.6 203 124.8 202.6 125C202.2 125.1 201.7 125.2 201.2 125.2C200.7 125.2 200.3 125.1 200 124.9C199.7 124.7 199.4 124.5 199.2 124.2C199 123.9 198.9 123.5 198.9 123.1C198.9 122.5 199.1 122 199.6 121.5C200 121.1 200.6 120.8 201.4 120.6C202.1 120.4 203 120.3 203.9 120.3V120C203.9 119.5 203.8 119.2 203.6 118.9C203.4 118.7 203.1 118.6 202.6 118.6C201.8 118.6 201 118.9 200.1 119.5L199.3 118.3C199.9 117.9 200.4 117.6 201 117.4C201.5 117.2 202.2 117.1 202.8 117.1ZM195.5 125V117.4L197.4 117.2V125H195.5ZM196.4 116C196.2 116 196 115.9 195.8 115.8C195.6 115.7 195.5 115.5 195.3 115.4C195.2 115.2 195.1 115 195.1 114.8C195.1 114.6 195.2 114.4 195.3 114.2C195.4 114 195.6 113.9 195.8 113.7C196 113.6 196.2 113.5 196.4 113.5C196.6 113.5 196.8 113.6 197 113.7C197.2 113.8 197.3 114 197.5 114.2C197.6 114.4 197.7 114.6 197.7 114.8C197.7 115 197.6 115.2 197.5 115.4C197.4 115.6 197.2 115.7 197 115.8C196.8 115.9 196.6 116 196.4 116ZM194.1 124.7C193.4 125 192.7 125.2 192 125.2C191.6 125.2 191.2 125.1 190.8 124.9C190.4 124.7 190.2 124.5 190 124.1C189.8 123.7 189.7 123.3 189.7 122.7V118.8H188.2V117.3H189.7V115.6L191.6 115.3V117.3H194L193.8 118.8H191.6V122.4C191.6 122.8 191.7 123.1 191.8 123.3C192 123.5 192.2 123.6 192.5 123.6C192.7 123.6 192.8 123.6 193 123.5C193.2 123.5 193.4 123.4 193.6 123.3L194.1 124.7ZM185.1 125V117.4L187 117.2V125H185.1ZM186 116C185.8 116 185.6 115.9 185.4 115.8C185.2 115.7 185.1 115.5 184.9 115.4C184.8 115.2 184.7 115 184.7 114.8C184.7 114.6 184.8 114.4 184.9 114.2C185 114 185.2 113.9 185.4 113.7C185.6 113.6 185.8 113.5 186 113.5C186.2 113.5 186.4 113.6 186.6 113.7C186.8 113.8 187 114 187.1 114.2C187.2 114.4 187.3 114.6 187.3 114.8C187.3 115 187.2 115.2 187.1 115.4C187 115.6 186.8 115.7 186.6 115.8C186.4 115.9 186.2 116 186 116ZM180.5 117.1C181.2 117.1 181.8 117.3 182.2 117.7C182.6 118.1 182.8 118.7 182.8 119.5V125H181V120.1C181 119.7 181 119.4 180.9 119.2C180.8 119 180.7 118.8 180.5 118.7C180.3 118.6 180.1 118.6 179.8 118.6C179.2 118.6 178.6 118.8 177.9 119.1V124.9H176V117.3L177.9 117.1V117.8C178.8 117.4 179.7 117.1 180.5 117.1ZM171.9 125V117.4L173.8 117.2V125H171.9ZM172.8 116C172.6 116 172.4 115.9 172.2 115.8C172 115.7 171.9 115.5 171.7 115.4C171.6 115.2 171.5 115 171.5 114.8C171.5 114.6 171.6 114.4 171.7 114.2C171.8 114 172 113.9 172.2 113.7C172.4 113.6 172.6 113.5 172.8 113.5C173 113.5 173.2 113.6 173.4 113.7C173.6 113.8 173.7 114 173.9 114.2C174 114.4 174.1 114.6 174.1 114.8C174.1 115 174 115.2 173.9 115.4C173.8 115.6 173.6 115.7 173.4 115.8C173.2 115.9 173 116 172.8 116ZM163.4 117.1C164.1 117.1 164.7 117.3 165.1 117.7C165.5 118.1 165.7 118.7 165.7 119.5V125H163.8V120.1C163.8 119.7 163.8 119.4 163.7 119.2C163.6 119 163.5 118.8 163.3 118.7C163.1 118.6 162.9 118.6 162.6 118.6C162 118.6 161.4 118.8 160.7 119.1V124.9H158.8V117.3L160.7 117.1V117.8C161.6 117.4 162.5 117.1 163.4 117.1ZM150.4 120.5H153.8L152.1 115.7L150.4 120.5ZM153.3 113.9L157.4 124.9V125H155.3L154.3 122H149.8L148.8 125H146.8V124.9L150.9 113.9H153.3Z" fill="#FEFEFE"/>
<path d="M251.1 19.3999H235.2C235.2 21.6999 235.2 23.9999 235.2 26.1999H251.1V19.3999Z" fill="#FEFEFE"/>
<path d="M346.7 76.9H349.3C349.3 77.4 349.5 77.9 349.8 78.2C350.1 78.5 350.6 78.7 351.1 78.7C351.6 78.7 352.1 78.5 352.4 78.2C352.7 77.9 352.9 77.5 352.9 77C352.9 76.5 352.8 76.1 352.5 75.9C352.2 75.6 351.8 75.3 351.1 75.1C350.2 74.8 349.5 74.5 349.2 74.3C348.9 74.1 348.6 73.9 348.3 73.6C347.6 72.9 347.2 72 347.2 70.9C347.2 69.9 347.5 69.1 348.2 68.3C349 67.5 349.9 67.1 351 67.1C351.6 67.1 352.1 67.2 352.7 67.5C353.2 67.8 353.7 68.1 354.1 68.6C354.6 69.2 354.9 70 355 70.9H352.5C352.5 70.4 352.3 70.1 352.1 69.8C351.8 69.5 351.5 69.4 351.1 69.4C350.7 69.4 350.3 69.5 350.1 69.8C349.9 70 349.7 70.4 349.7 70.8C349.7 71.2 349.9 71.6 350.2 71.9C350.5 72.1 351 72.4 351.9 72.7C352.9 73.1 353.7 73.5 354.2 73.9C355 74.7 355.4 75.6 355.4 76.7C355.4 77.9 355 78.9 354.2 79.7C353.3 80.6 352.3 81 351.1 81C350.4 81 349.8 80.9 349.2 80.6C348.6 80.3 348.1 79.9 347.7 79.4C347.1 78.7 346.8 77.9 346.7 76.9ZM336.1 80.7V67.5H343.2V69.8H338.6V73H343V75.3H338.6V78.5H343.2V80.8H336.1V80.7ZM325.4 73.8H327C327.8 73.8 328.4 73.6 328.8 73.2C329.2 72.8 329.3 72.4 329.3 71.8C329.3 71.2 329.1 70.7 328.7 70.3C328.3 69.9 327.7 69.8 327 69.8H325.4V73.8ZM322.9 80.7V67.5H327C327.8 67.5 328.4 67.6 329 67.7C329.5 67.9 330 68.1 330.4 68.5C331.3 69.3 331.8 70.4 331.8 71.6C331.8 72.2 331.7 72.8 331.4 73.4C331.2 74 330.8 74.5 330.4 74.8C329.9 75.2 329.2 75.6 328.3 75.8L331.9 80.7H328.9L325.4 75.6V80.7H322.9ZM308.7 67.5H311.2V75.9C311.2 76.4 311.2 76.8 311.3 77C311.4 77.3 311.5 77.5 311.6 77.8C312 78.4 312.6 78.7 313.4 78.7C313.8 78.7 314.2 78.6 314.5 78.5C314.8 78.3 315.1 78.1 315.3 77.8C315.5 77.6 315.6 77.3 315.6 77C315.7 76.7 315.7 76.3 315.7 75.9V67.5H318.2V75.9C318.2 77.3 317.9 78.5 317.3 79.2C316.9 79.7 316.3 80.2 315.7 80.5C315 80.8 314.3 81 313.5 81C312.5 81 311.6 80.7 310.7 80.2C310 79.7 309.5 79.2 309.2 78.5C308.9 77.8 308.7 77 308.7 75.9V67.5ZM300.1 80.7V69.7H297.6V67.4H304.9V69.7H302.5V80.7H300.1ZM283 80.7V67.5H285.8L291.3 77.1V67.5H293.8V80.7H291L285.5 71.1V80.7H283ZM271.5 80.7V67.5H278.6V69.8H274V73H278.4V75.3H274V78.5H278.6V80.8H271.5V80.7ZM260.8 80.7L255.6 67.5H258.2L261.8 77.6L265.4 67.5H268L262.9 80.7H260.8ZM241.5 80.7V67.5H244V78.5H248V80.8H241.5V80.7ZM230 75H232.8L231.4 70.9L230 75ZM224.9 80.7L230.4 67.5H232.3L237.8 80.7H235.1L233.7 77.3H229L227.5 80.7H224.9ZM215.8 72.6H216.6C217.3 72.6 217.8 72.5 218.1 72.3C218.3 72.2 218.4 72 218.5 71.8C218.6 71.6 218.7 71.4 218.7 71.1C218.7 70.6 218.5 70.3 218.2 70C217.9 69.8 217.4 69.6 216.8 69.6H215.8V72.6ZM215.8 78.4H217C217.8 78.4 218.4 78.3 218.8 78C219.2 77.7 219.4 77.3 219.4 76.7C219.4 76.1 219.2 75.7 218.8 75.4C218.4 75.1 217.8 74.9 217 74.9H215.7V78.4H215.8ZM213.3 80.7V67.5H215.9C216.9 67.5 217.6 67.5 218.1 67.6C218.6 67.7 219.1 67.9 219.5 68.1C220 68.4 220.3 68.8 220.6 69.3C220.9 69.8 221 70.4 221 70.9C221 71.5 220.9 72 220.6 72.4C220.4 72.8 220 73.2 219.5 73.5C221 74 221.8 75.1 221.8 76.8C221.8 78.2 221.2 79.2 220.1 80C219.3 80.5 218.2 80.7 216.8 80.7H213.3ZM202.1 69.5C200.9 69.5 199.8 69.9 199 70.8C198.6 71.2 198.3 71.7 198 72.3C197.8 72.9 197.7 73.4 197.7 74C197.7 75.3 198.1 76.4 199 77.3C199.9 78.2 200.9 78.6 202.2 78.6C203.4 78.6 204.5 78.2 205.3 77.3C206.2 76.4 206.6 75.3 206.6 74C206.6 73.4 206.5 72.8 206.3 72.2C206.1 71.6 205.7 71.1 205.3 70.7C204.3 70 203.3 69.5 202.1 69.5ZM202.1 67.2C203.4 67.2 204.6 67.5 205.7 68.2C206.8 68.9 207.7 69.8 208.2 70.9C208.7 71.9 208.9 72.9 208.9 74C208.9 75.3 208.6 76.5 207.9 77.6C207.2 78.7 206.3 79.5 205.1 80.1C204.1 80.6 203.1 80.9 202 80.9C200.7 80.9 199.5 80.6 198.4 79.9C197.3 79.2 196.4 78.3 195.9 77.2C195.4 76.2 195.1 75.1 195.1 74C195.1 72.8 195.4 71.6 196.1 70.5C196.8 69.4 197.7 68.6 198.9 68C199.9 67.5 200.9 67.2 202.1 67.2ZM185.9 80.7V67.5H188.4V78.5H192.4V80.8H185.9V80.7ZM172.9 76.3V74H181.5C181.5 74.1 181.5 74.2 181.5 74.3C181.5 75.5 181.2 76.6 180.5 77.6C179.9 78.6 179 79.5 177.9 80.1C176.8 80.7 175.7 81 174.5 81C173.3 81 172.1 80.7 171 80.1C169.9 79.5 169 78.7 168.4 77.6C167.8 76.5 167.5 75.4 167.5 74.2C167.5 72.8 167.9 71.4 168.8 70.2C169.6 69.1 170.6 68.4 171.8 67.8C172.7 67.4 173.6 67.2 174.5 67.2C175.4 67.2 176.2 67.4 177 67.7C177.8 68 178.6 68.5 179.2 69C180 69.7 180.6 70.5 180.9 71.4H178C177.6 70.8 177.1 70.4 176.5 70C175.9 69.7 175.2 69.5 174.5 69.5C173.2 69.5 172.1 70 171.2 70.9C170.8 71.3 170.5 71.8 170.3 72.4C170.1 73 170 73.6 170 74.1C170 75 170.3 75.9 170.8 76.7C171.3 77.4 171.9 78 172.8 78.3C173.4 78.5 174 78.7 174.7 78.7C175.5 78.7 176.3 78.5 177 78.1C177.7 77.7 178.2 77.1 178.6 76.3H172.9Z" fill="#005163"/>
</svg>
